<svg xmlns="http://www.w3.org/2000/svg" viewBox="0 0 560 120" role="img" aria-label="Matchwork Roofing"><g fill="#1a2a5e" transform="translate(0 78.00)"><path transform="translate(9.86 0) scale(0.064000 -0.064000)" d="M82.00 0.00V730.00H308.00L474.50 319.50H493.50L659.00 730.00H889.00V0.00H726.50V623.00L750.00 621.00L557.25 148.00H400.50L206.75 621.00L232.00 623.00V0.00Z"/><path transform="translate(71.00 0) scale(0.064000 -0.064000)" d="M13.00 0.00 254.25 730.00H519.25L768.50 0.00H599.25L397.00 616.50L448.75 595.50H320.25L373.50 616.50L177.00 0.00ZM195.50 181.25 245.75 317.25H532.25L582.50 181.25Z"/><path transform="translate(120.05 0) scale(0.064000 -0.064000)" d="M227.00 0.00V606.50H391.00V0.00ZM21.50 586.50V730.00H596.50V586.50Z"/><path transform="translate(158.60 0) scale(0.064000 -0.064000)" d="M417.00 -19.50Q317.75 -19.50 246.88 15.12Q176.00 49.75 130.75 106.12Q85.50 162.50 64.00 228.38Q42.50 294.25 42.50 356.00V378.00Q42.50 446.25 64.50 512.62Q86.50 579.00 132.12 633.00Q177.75 687.00 247.50 719.25Q317.25 751.50 411.75 751.50Q511.25 751.50 586.88 714.88Q662.50 678.25 708.00 612.38Q753.50 546.50 761.75 459.00H597.25Q590.00 503.00 564.75 534.12Q539.50 565.25 500.38 581.88Q461.25 598.50 411.75 598.50Q363.25 598.50 325.12 581.62Q287.00 564.75 261.25 534.00Q235.50 503.25 222.00 460.75Q208.50 418.25 208.50 366.00Q208.50 314.50 222.00 272.00Q235.50 229.50 262.25 198.25Q289.00 167.00 327.75 150.25Q366.50 133.50 417.00 133.50Q493.00 133.50 545.38 170.75Q597.75 208.00 608.75 273.00H773.25Q764.00 192.75 719.38 126.25Q674.75 59.75 598.38 20.12Q522.00 -19.50 417.00 -19.50Z"/><path transform="translate(208.80 0) scale(0.064000 -0.064000)" d="M553.50 0.00V730.00H717.50V0.00ZM82.00 0.00V730.00H246.00V0.00ZM217.00 295.00V438.50H582.50V295.00Z"/></g><g fill="#1a2a5e" transform="translate(0 78.00)"><path transform="translate(324.16 0) scale(0.064000 -0.064000)" d="M432.25 -19.50Q332.75 -19.50 259.50 15.12Q186.25 49.75 138.00 106.38Q89.75 163.00 66.12 228.75Q42.50 294.50 42.50 356.00V378.00Q42.50 446.00 67.00 512.38Q91.50 578.75 140.75 632.88Q190.00 687.00 262.75 719.25Q335.50 751.50 432.25 751.50Q528.25 751.50 601.00 719.25Q673.75 687.00 723.00 632.88Q772.25 578.75 797.12 512.38Q822.00 446.00 822.00 378.00V356.00Q822.00 294.50 798.00 228.75Q774.00 163.00 725.75 106.38Q677.50 49.75 604.25 15.12Q531.00 -19.50 432.25 -19.50ZM432.25 133.50Q484.25 133.50 525.62 151.50Q567.00 169.50 596.25 201.62Q625.50 233.75 640.75 275.75Q656.00 317.75 656.00 366.00Q656.00 417.25 640.38 459.75Q624.75 502.25 595.50 533.38Q566.25 564.50 524.88 581.50Q483.50 598.50 432.25 598.50Q380.25 598.50 338.88 581.50Q297.50 564.50 268.25 533.38Q239.00 502.25 223.75 459.75Q208.50 417.25 208.50 366.00Q208.50 317.75 223.75 275.75Q239.00 233.75 268.25 201.62Q297.50 169.50 338.88 151.50Q380.25 133.50 432.25 133.50Z"/><path transform="translate(378.46 0) scale(0.064000 -0.064000)" d="M82.00 0.00V735.50H246.00V0.00ZM524.75 0.00 310.50 313.75H490.75L715.00 0.00ZM201.50 234.00V363.00H381.75Q418.00 363.00 444.25 377.50Q470.50 392.00 485.12 418.38Q499.75 444.75 499.75 479.50Q499.75 515.00 485.12 541.38Q470.50 567.75 444.25 582.38Q418.00 597.00 381.75 597.00H201.50V735.50H369.00Q460.25 735.50 527.00 708.12Q593.75 680.75 629.75 626.62Q665.75 572.50 665.75 491.25V475.25Q665.75 394.00 629.25 340.62Q592.75 287.25 526.50 260.62Q460.25 234.00 369.00 234.00Z"/><path transform="translate(424.18 0) scale(0.064000 -0.064000)" d="M561.50 0.00 309.50 341.00H208.50L514.50 730.00H703.00L428.00 381.00L425.75 451.50L760.00 0.00ZM82.00 0.00V730.00H246.00V0.00Z"/></g><g fill="#1a2a5e" transform="translate(0 106.00)"><path transform="translate(148.69 0) scale(0.006836 -0.006836)" d="M149.76 0.00V1490.00H707.28Q878.40 1490.00 995.22 1430.14Q1112.04 1370.28 1171.94 1262.86Q1231.84 1155.44 1231.84 1013.44Q1231.84 870.72 1171.40 765.84Q1110.96 660.96 993.20 604.00Q875.44 547.04 702.88 547.04H305.44V768.24H667.60Q769.04 768.24 833.16 796.80Q897.28 825.36 928.12 880.04Q958.96 934.72 958.96 1013.44Q958.96 1093.44 928.12 1149.76Q897.28 1206.08 832.84 1236.28Q768.40 1266.48 666.32 1266.48H416.80V0.00ZM987.76 0.00 626.32 675.68H918.08L1286.96 0.00Z"/><path transform="translate(163.32 0) scale(0.006836 -0.006836)" d="M787.60 -20.00Q592.28 -20.00 437.38 70.88Q282.48 161.76 192.88 332.90Q103.28 504.04 103.28 744.00Q103.28 985.32 192.88 1156.64Q282.48 1327.96 437.38 1418.98Q592.28 1510.00 787.60 1510.00Q982.92 1510.00 1137.32 1418.98Q1291.72 1327.96 1381.18 1156.64Q1470.64 985.32 1470.64 744.00Q1470.64 503.68 1381.18 332.54Q1291.72 161.40 1137.32 70.70Q982.92 -20.00 787.60 -20.00ZM787.60 219.36Q909.08 219.36 1002.54 279.66Q1096.00 339.96 1149.24 457.24Q1202.48 574.52 1202.48 744.00Q1202.48 915.12 1149.24 1032.58Q1096.00 1150.04 1002.54 1210.34Q909.08 1270.64 787.60 1270.64Q665.84 1270.64 572.06 1210.02Q478.28 1149.40 424.86 1031.94Q371.44 914.48 371.44 744.00Q371.44 574.52 424.86 457.56Q478.28 340.60 572.06 279.98Q665.84 219.36 787.60 219.36Z"/><path transform="translate(179.58 0) scale(0.006836 -0.006836)" d="M787.60 -20.00Q592.28 -20.00 437.38 70.88Q282.48 161.76 192.88 332.90Q103.28 504.04 103.28 744.00Q103.28 985.32 192.88 1156.64Q282.48 1327.96 437.38 1418.98Q592.28 1510.00 787.60 1510.00Q982.92 1510.00 1137.32 1418.98Q1291.72 1327.96 1381.18 1156.64Q1470.64 985.32 1470.64 744.00Q1470.64 503.68 1381.18 332.54Q1291.72 161.40 1137.32 70.70Q982.92 -20.00 787.60 -20.00ZM787.60 219.36Q909.08 219.36 1002.54 279.66Q1096.00 339.96 1149.24 457.24Q1202.48 574.52 1202.48 744.00Q1202.48 915.12 1149.24 1032.58Q1096.00 1150.04 1002.54 1210.34Q909.08 1270.64 787.60 1270.64Q665.84 1270.64 572.06 1210.02Q478.28 1149.40 424.86 1031.94Q371.44 914.48 371.44 744.00Q371.44 574.52 424.86 457.56Q478.28 340.60 572.06 279.98Q665.84 219.36 787.60 219.36Z"/><path transform="translate(195.84 0) scale(0.006836 -0.006836)" d="M149.76 0.00V1490.00H1103.68V1265.12H416.80V817.76H1037.12V595.76H416.80V0.00Z"/><path transform="translate(209.57 0) scale(0.006836 -0.006836)" d="M416.80 1490.00V0.00H149.76V1490.00Z"/><path transform="translate(218.95 0) scale(0.006836 -0.006836)" d="M149.76 0.00V1490.00H451.52L967.16 669.47Q999.08 618.44 1035.24 553.96Q1071.40 489.48 1110.18 409.82Q1148.96 330.16 1187.32 233.12H1157.44Q1149.88 317.32 1144.62 405.90Q1139.36 494.48 1136.56 573.98Q1133.76 653.47 1133.76 708.47V1490.00H1405.12V0.00H1102.08L637.32 738.56Q593.48 809.80 554.18 878.78Q514.88 947.76 469.94 1034.88Q425.00 1122.00 361.20 1245.12H398.72Q404.80 1136.28 410.06 1038.68Q415.32 941.08 418.54 864.24Q421.76 787.40 421.76 739.84V0.00Z"/><path transform="translate(235.08 0) scale(0.006836 -0.006836)" d="M792.96 -20.00Q587.48 -20.00 432.26 72.82Q277.04 165.64 190.16 336.96Q103.28 508.28 103.28 743.28Q103.28 983.52 192.50 1155.02Q281.72 1326.52 435.84 1418.26Q589.96 1510.00 784.56 1510.00Q907.60 1510.00 1014.06 1474.10Q1120.52 1438.20 1204.04 1371.76Q1287.56 1305.32 1341.06 1214.38Q1394.56 1123.44 1411.68 1014.00H1139.36Q1121.40 1073.76 1089.70 1121.04Q1058.00 1168.32 1013.42 1201.94Q968.84 1235.56 912.38 1253.10Q855.92 1270.64 788.08 1270.64Q667.88 1270.64 573.48 1209.98Q479.08 1149.32 425.26 1032.04Q371.44 914.76 371.44 745.44Q371.44 576.68 425.04 459.36Q478.64 342.04 573.78 280.70Q668.92 219.36 794.40 219.36Q908.16 219.36 991.74 263.32Q1075.32 307.28 1120.54 388.14Q1165.76 469.00 1165.76 578.88L1227.44 568.96H821.52V778.88H1425.20V600.40Q1425.20 408.56 1343.68 269.50Q1262.16 130.44 1119.62 55.22Q977.08 -20.00 792.96 -20.00Z"/><path transform="translate(260.09 0) scale(0.006836 -0.006836)" d="M326.32 547.44Q258.80 547.44 212.28 593.60Q165.76 639.76 165.76 706.92Q165.76 774.08 212.28 820.24Q258.80 866.40 326.32 866.40Q393.84 866.40 440.36 820.24Q486.88 774.08 486.88 706.92Q486.88 639.76 440.36 593.60Q393.84 547.44 326.32 547.44Z"/><path transform="translate(279.08 0) scale(0.006836 -0.006836)" d="M654.00 0.00H276.72V231.36H640.56Q797.00 231.36 901.74 288.44Q1006.48 345.52 1059.00 460.22Q1111.52 574.92 1111.52 746.56Q1111.52 917.28 1058.96 1031.02Q1006.40 1144.76 903.50 1201.70Q800.60 1258.64 647.76 1258.64H269.44V1490.00H664.00Q886.32 1490.00 1045.32 1400.82Q1204.32 1311.64 1289.88 1144.96Q1375.44 978.28 1375.44 746.56Q1375.44 513.92 1289.74 346.60Q1204.04 179.28 1042.52 89.64Q881.00 0.00 654.00 0.00ZM416.80 1490.00V0.00H149.76V1490.00Z"/><path transform="translate(294.69 0) scale(0.006836 -0.006836)" d="M754.00 -21.84Q572.24 -21.84 436.06 46.62Q299.88 115.08 224.82 236.70Q149.76 358.32 149.76 517.44V1490.00H416.80V539.28Q416.80 445.60 458.36 372.90Q499.92 300.20 575.50 258.50Q651.08 216.80 754.00 216.80Q857.28 216.80 932.72 258.50Q1008.16 300.20 1049.40 372.90Q1090.64 445.60 1090.64 539.28V1490.00H1357.68V517.44Q1357.68 358.32 1282.44 236.70Q1207.20 115.08 1071.48 46.62Q935.76 -21.84 754.00 -21.84Z"/><path transform="translate(310.50 0) scale(0.006836 -0.006836)" d="M149.76 0.00V1490.00H720.24Q881.28 1490.00 988.00 1439.20Q1094.72 1388.40 1147.64 1301.06Q1200.56 1213.72 1200.56 1103.28Q1200.56 1012.32 1165.84 947.84Q1131.12 883.36 1072.38 843.30Q1013.64 803.24 940.72 785.60V770.88Q1020.08 767.24 1092.82 723.06Q1165.56 678.88 1212.06 598.78Q1258.56 518.68 1258.56 406.00Q1258.56 290.40 1202.92 198.42Q1147.28 106.44 1034.76 53.22Q922.24 0.00 751.28 0.00ZM416.80 223.44H709.20Q856.92 223.44 922.50 280.36Q988.08 337.28 988.08 426.00Q988.08 493.08 955.12 546.54Q922.16 600.00 861.66 631.16Q801.16 662.32 717.76 662.32H416.80ZM416.80 854.72H686.48Q756.76 854.72 812.94 880.82Q869.12 906.92 901.72 955.06Q934.32 1003.20 934.32 1069.04Q934.32 1155.60 873.30 1211.80Q812.28 1268.00 692.48 1268.00H416.80Z"/><path transform="translate(325.22 0) scale(0.006836 -0.006836)" d="M149.76 0.00V1490.00H416.80V224.88H1075.12V0.00Z"/><path transform="translate(338.64 0) scale(0.006836 -0.006836)" d="M416.80 1490.00V0.00H149.76V1490.00Z"/><path transform="translate(348.02 0) scale(0.006836 -0.006836)" d="M149.76 0.00V1490.00H451.52L967.16 669.47Q999.08 618.44 1035.24 553.96Q1071.40 489.48 1110.18 409.82Q1148.96 330.16 1187.32 233.12H1157.44Q1149.88 317.32 1144.62 405.90Q1139.36 494.48 1136.56 573.98Q1133.76 653.47 1133.76 708.47V1490.00H1405.12V0.00H1102.08L637.32 738.56Q593.48 809.80 554.18 878.78Q514.88 947.76 469.94 1034.88Q425.00 1122.00 361.20 1245.12H398.72Q404.80 1136.28 410.06 1038.68Q415.32 941.08 418.54 864.24Q421.76 787.40 421.76 739.84V0.00Z"/><path transform="translate(364.15 0) scale(0.006836 -0.006836)" d="M122.24 -383.12 210.24 219.52H478.88L304.16 -383.12Z"/><path transform="translate(383.14 0) scale(0.006836 -0.006836)" d="M787.60 -20.00Q592.28 -20.00 437.38 70.88Q282.48 161.76 192.88 332.90Q103.28 504.04 103.28 744.00Q103.28 985.32 192.88 1156.64Q282.48 1327.96 437.38 1418.98Q592.28 1510.00 787.60 1510.00Q982.92 1510.00 1137.32 1418.98Q1291.72 1327.96 1381.18 1156.64Q1470.64 985.32 1470.64 744.00Q1470.64 503.68 1381.18 332.54Q1291.72 161.40 1137.32 70.70Q982.92 -20.00 787.60 -20.00ZM787.60 219.36Q909.08 219.36 1002.54 279.66Q1096.00 339.96 1149.24 457.24Q1202.48 574.52 1202.48 744.00Q1202.48 915.12 1149.24 1032.58Q1096.00 1150.04 1002.54 1210.34Q909.08 1270.64 787.60 1270.64Q665.84 1270.64 572.06 1210.02Q478.28 1149.40 424.86 1031.94Q371.44 914.48 371.44 744.00Q371.44 574.52 424.86 457.56Q478.28 340.60 572.06 279.98Q665.84 219.36 787.60 219.36Z"/><path transform="translate(399.40 0) scale(0.006836 -0.006836)" d="M149.76 0.00V1490.00H416.80V874.08H1110.24V1490.00H1377.28V0.00H1110.24V649.20H416.80V0.00Z"/><path transform="translate(415.33 0) scale(0.006836 -0.006836)" d="M416.80 1490.00V0.00H149.76V1490.00Z"/><path transform="translate(424.71 0) scale(0.006836 -0.006836)" d="M787.60 -20.00Q592.28 -20.00 437.38 70.88Q282.48 161.76 192.88 332.90Q103.28 504.04 103.28 744.00Q103.28 985.32 192.88 1156.64Q282.48 1327.96 437.38 1418.98Q592.28 1510.00 787.60 1510.00Q982.92 1510.00 1137.32 1418.98Q1291.72 1327.96 1381.18 1156.64Q1470.64 985.32 1470.64 744.00Q1470.64 503.68 1381.18 332.54Q1291.72 161.40 1137.32 70.70Q982.92 -20.00 787.60 -20.00ZM787.60 219.36Q909.08 219.36 1002.54 279.66Q1096.00 339.96 1149.24 457.24Q1202.48 574.52 1202.48 744.00Q1202.48 915.12 1149.24 1032.58Q1096.00 1150.04 1002.54 1210.34Q909.08 1270.64 787.60 1270.64Q665.84 1270.64 572.06 1210.02Q478.28 1149.40 424.86 1031.94Q371.44 914.48 371.44 744.00Q371.44 574.52 424.86 457.56Q478.28 340.60 572.06 279.98Q665.84 219.36 787.60 219.36Z"/></g><clipPath id="kln"><rect x="262.00" y="33.20" width="60.16" height="44.80"/></clipPath><g clip-path="url(#kln)"><polyline points="258.16,22.96 277.36,81.84 292.08,47.28 306.80,81.84 326.00,22.96" fill="none" stroke="#1a2a5e" stroke-width="10.24" stroke-linejoin="miter" stroke-miterlimit="8"/></g></svg>
