<svg xmlns="http://www.w3.org/2000/svg" viewBox="0 0 300 64" role="img" aria-label="Matchwork. Architectural roofing and restoration">
  <g transform="translate(0 8) scale(0.75)">
  <path d="M14 0 H50 A14 14 0 0 1 64 14 V50 A14 14 0 0 1 50 64 H14 A14 14 0 0 1 0 50 V14 A14 14 0 0 1 14 0 Z" fill="#1a2a5e"/>
  <path d="M14 23 L32 11 L50 23" fill="none" stroke="#f5a524" stroke-width="5.5" stroke-linecap="round" stroke-linejoin="round"/>
  <g transform="translate(31.75 41) scale(1.1) translate(-31.75 -41)">
    <path d="M11 30 L16.5 30 L22.5 41.5 L28.5 30 L34 30 L34 52 L29 52 L29 39 L24.5 47.5 L20.5 47.5 L16 39 L16 52 L11 52 Z" fill="#ffffff"/>
    <path d="M36.5 30 H44.75 A5.75 5.75 0 0 1 44.75 41.5 H43.8 L52.5 52 H45.6 L41.5 46.6 V52 H36.5 Z M41.5 34 H44.75 A1.75 1.75 0 0 1 44.75 37.5 H41.5 Z" fill="#ffffff" fill-rule="evenodd"/>
  </g>
  </g>
  <text x="64" y="36" font-family="Sora,'Helvetica Neue',Arial,sans-serif" font-size="27" font-weight="800" letter-spacing="-0.6" fill="#1a2a5e">MATCHWORK<tspan fill="#f5a524">.</tspan></text>
  <text x="65" y="50" font-family="Inter,system-ui,-apple-system,'Segoe UI',Roboto,sans-serif" font-size="7.2" font-weight="700" letter-spacing="1.65" fill="#5b6779">ARCHITECTURAL ROOFING &amp; RESTORATION</text>
</svg>
